<svg width="30" height="29" viewBox="0 0 30 29" fill="none" xmlns="http://www.w3.org/2000/svg">
<path fill-rule="evenodd" clip-rule="evenodd" d="M14.7485 0C6.60407 0 0 6.51718 0 14.5584C0 20.9891 4.22572 26.4455 10.0877 28.3707C10.8252 28.5045 11.0944 28.055 11.0944 27.6692C11.0944 27.3235 11.0815 26.4082 11.0741 25.1935C6.97096 26.0733 6.10537 23.2419 6.10537 23.2419C5.43519 21.5605 4.46818 21.1129 4.46818 21.1129C3.12874 20.2094 4.56957 20.2276 4.56957 20.2276C6.04912 20.3304 6.82807 21.7279 6.82807 21.7279C8.14447 23.9525 10.2804 23.3102 11.1211 22.9371C11.2548 21.9963 11.6364 21.3549 12.0577 20.991C8.78239 20.6234 5.33931 19.3751 5.33931 13.7969C5.33931 12.2074 5.91363 10.9081 6.85759 9.88998C6.70549 9.5215 6.1994 8.0421 7.00141 6.03772C7.00141 6.03772 8.24035 5.64647 11.0575 7.52985C12.2347 7.20685 13.4958 7.04581 14.7504 7.03944C16.0032 7.04581 17.2652 7.20685 18.4433 7.52985C21.2586 5.64647 22.4948 6.03772 22.4948 6.03772C23.2996 8.0421 22.7935 9.5215 22.6414 9.88998C23.5872 10.9081 24.1578 12.2074 24.1578 13.7969C24.1578 19.3887 20.7092 20.6197 17.4238 20.98C17.9529 21.4295 18.4249 22.3175 18.4249 23.6759C18.4249 25.6221 18.4064 27.1915 18.4064 27.6692C18.4064 28.0586 18.6719 28.5117 19.4205 28.3689C25.2769 26.44 29.499 20.9873 29.499 14.5584C29.499 6.51718 22.8949 0 14.7485 0Z" fill="#898989"/>
</svg>
