<svg width="29" height="29" viewBox="0 0 29 29" fill="none" xmlns="http://www.w3.org/2000/svg">
<path d="M28.5157 24.7945C28.5157 27.0036 26.743 28.7936 24.5552 28.7936H3.96051C1.77352 28.7936 0 27.0036 0 24.7945V3.99911C0 1.79 1.77352 0 3.96051 0H24.5552C26.743 0 28.5157 1.79 28.5157 3.99911V24.7945Z" fill="#898989"/>
<path d="M4.69653 10.1973H8.68034V23.8772H4.69653V10.1973ZM6.67649 8.58795H6.65418C5.46541 8.58795 4.69653 7.69312 4.69653 6.5754C4.69653 5.43353 5.48931 4.56445 6.69959 4.56445C7.91147 4.56445 8.65803 5.43353 8.68034 6.5754C8.68034 7.69232 7.91147 8.58795 6.67649 8.58795ZM23.8188 23.8772H19.835V16.5553C19.835 14.7865 18.859 13.5795 17.2917 13.5795C16.0958 13.5795 15.4488 14.3939 15.1349 15.1809C15.0202 15.4625 15.0544 16.2414 15.0544 16.6349V23.8772H11.0706V10.1973H15.0544V12.3024C15.6289 11.4044 16.5284 10.1973 18.8295 10.1973C21.6803 10.1973 23.818 12.0079 23.818 16.0507L23.8188 23.8772Z" fill="#070818"/>
</svg>
